<mxfile host="app.diagrams.net" modified="2023-06-02T05:20:34.603Z" agent="Mozilla/5.0 (Windows NT 10.0; Win64; x64) AppleWebKit/537.36 (KHTML, like Gecko) Chrome/113.0.0.0 Safari/537.36" etag="UK1K-ospxLKVCb-g0nqw" version="21.3.6" type="device">
  <diagram name="Page-1" id="_E5XUAzNCj1MG0fGhXHX">
    <mxGraphModel dx="880" dy="452" grid="1" gridSize="10" guides="1" tooltips="1" connect="1" arrows="1" fold="1" page="1" pageScale="2" pageWidth="827" pageHeight="1169" math="0" shadow="0">
      <root>
        <mxCell id="0" />
        <mxCell id="1" parent="0" />
        <mxCell id="DaqoWSc-mNuOy6L9-T75-27" value="Question" style="swimlane;fontStyle=1;align=center;verticalAlign=top;childLayout=stackLayout;horizontal=1;startSize=26;horizontalStack=0;resizeParent=1;resizeParentMax=0;resizeLast=0;collapsible=1;marginBottom=0;whiteSpace=wrap;html=1;" parent="1" vertex="1">
          <mxGeometry x="594" y="830" width="160" height="280" as="geometry" />
        </mxCell>
        <mxCell id="DaqoWSc-mNuOy6L9-T75-28" value="+ questionID: int&lt;br&gt;+ userEmail : String&lt;br&gt;+ questionTitle : String&lt;br&gt;+ questionText: String&lt;br&gt;+ votes: int&lt;br&gt;+ answerCount: int&lt;br&gt;+ viewCount: int&lt;br&gt;+ tags[]: array&lt;br&gt;+ answers[]: array&lt;br&gt;+ comments: array" style="text;strokeColor=none;fillColor=none;align=left;verticalAlign=top;spacingLeft=4;spacingRight=4;overflow=hidden;rotatable=0;points=[[0,0.5],[1,0.5]];portConstraint=eastwest;whiteSpace=wrap;html=1;" parent="DaqoWSc-mNuOy6L9-T75-27" vertex="1">
          <mxGeometry y="26" width="160" height="154" as="geometry" />
        </mxCell>
        <mxCell id="DaqoWSc-mNuOy6L9-T75-29" value="" style="line;strokeWidth=1;fillColor=none;align=left;verticalAlign=middle;spacingTop=-1;spacingLeft=3;spacingRight=3;rotatable=0;labelPosition=right;points=[];portConstraint=eastwest;strokeColor=inherit;" parent="DaqoWSc-mNuOy6L9-T75-27" vertex="1">
          <mxGeometry y="180" width="160" height="8" as="geometry" />
        </mxCell>
        <mxCell id="DaqoWSc-mNuOy6L9-T75-30" value="+ postQuestion(): String&lt;br&gt;+ FilterTags(): Boolean&lt;br&gt;+ AddVote(): Boolean" style="text;strokeColor=none;fillColor=none;align=left;verticalAlign=top;spacingLeft=4;spacingRight=4;overflow=hidden;rotatable=0;points=[[0,0.5],[1,0.5]];portConstraint=eastwest;whiteSpace=wrap;html=1;" parent="DaqoWSc-mNuOy6L9-T75-27" vertex="1">
          <mxGeometry y="188" width="160" height="92" as="geometry" />
        </mxCell>
        <mxCell id="DaqoWSc-mNuOy6L9-T75-33" value="" style="endArrow=none;html=1;rounded=0;exitX=0.431;exitY=-0.016;exitDx=0;exitDy=0;entryX=0.5;entryY=1;entryDx=0;entryDy=0;exitPerimeter=0;" parent="1" target="DaqoWSc-mNuOy6L9-T75-34" edge="1" source="P2lqv7Zl-PTRJqhCxioe-1">
          <mxGeometry width="50" height="50" relative="1" as="geometry">
            <mxPoint x="430" y="1360" as="sourcePoint" />
            <mxPoint x="620" y="1190" as="targetPoint" />
            <Array as="points">
              <mxPoint x="430" y="1300" />
              <mxPoint x="620" y="1300" />
            </Array>
          </mxGeometry>
        </mxCell>
        <mxCell id="DaqoWSc-mNuOy6L9-T75-34" value="" style="rhombus;whiteSpace=wrap;html=1;" parent="1" vertex="1">
          <mxGeometry x="600" y="1110" width="40" height="50" as="geometry" />
        </mxCell>
        <mxCell id="DaqoWSc-mNuOy6L9-T75-35" value="" style="rhombus;whiteSpace=wrap;html=1;" parent="1" vertex="1">
          <mxGeometry x="690" y="1110" width="40" height="50" as="geometry" />
        </mxCell>
        <mxCell id="DaqoWSc-mNuOy6L9-T75-36" value="" style="endArrow=none;html=1;rounded=0;entryX=0.5;entryY=1;entryDx=0;entryDy=0;exitX=0.465;exitY=-0.012;exitDx=0;exitDy=0;exitPerimeter=0;" parent="1" target="DaqoWSc-mNuOy6L9-T75-35" edge="1" source="P2lqv7Zl-PTRJqhCxioe-5">
          <mxGeometry width="50" height="50" relative="1" as="geometry">
            <mxPoint x="940" y="1350" as="sourcePoint" />
            <mxPoint x="630" y="1200" as="targetPoint" />
            <Array as="points">
              <mxPoint x="940" y="1300" />
              <mxPoint x="710" y="1300" />
            </Array>
          </mxGeometry>
        </mxCell>
        <mxCell id="DaqoWSc-mNuOy6L9-T75-39" value="ReportedQuestion" style="swimlane;fontStyle=1;align=center;verticalAlign=top;childLayout=stackLayout;horizontal=1;startSize=26;horizontalStack=0;resizeParent=1;resizeParentMax=0;resizeLast=0;collapsible=1;marginBottom=0;whiteSpace=wrap;html=1;" parent="1" vertex="1">
          <mxGeometry x="951" y="900" width="180" height="110" as="geometry" />
        </mxCell>
        <mxCell id="DaqoWSc-mNuOy6L9-T75-40" value="" style="line;strokeWidth=1;fillColor=none;align=left;verticalAlign=middle;spacingTop=-1;spacingLeft=3;spacingRight=3;rotatable=0;labelPosition=right;points=[];portConstraint=eastwest;strokeColor=inherit;" parent="DaqoWSc-mNuOy6L9-T75-39" vertex="1">
          <mxGeometry y="26" width="180" height="30" as="geometry" />
        </mxCell>
        <mxCell id="DaqoWSc-mNuOy6L9-T75-41" value="IsReporedt(): Boolean&lt;br&gt;IsResolved():Boolean&lt;br&gt;" style="text;strokeColor=none;fillColor=none;align=left;verticalAlign=top;spacingLeft=4;spacingRight=4;overflow=hidden;rotatable=0;points=[[0,0.5],[1,0.5]];portConstraint=eastwest;whiteSpace=wrap;html=1;" parent="DaqoWSc-mNuOy6L9-T75-39" vertex="1">
          <mxGeometry y="56" width="180" height="54" as="geometry" />
        </mxCell>
        <mxCell id="DaqoWSc-mNuOy6L9-T75-42" value="" style="endArrow=block;endFill=0;endSize=34;html=1;rounded=0;exitX=-0.028;exitY=0.13;exitDx=0;exitDy=0;exitPerimeter=0;entryX=0.994;entryY=0.621;entryDx=0;entryDy=0;entryPerimeter=0;" parent="1" source="DaqoWSc-mNuOy6L9-T75-41" edge="1">
          <mxGeometry width="160" relative="1" as="geometry">
            <mxPoint x="961" y="970" as="sourcePoint" />
            <mxPoint x="754" y="963" as="targetPoint" />
          </mxGeometry>
        </mxCell>
        <mxCell id="DaqoWSc-mNuOy6L9-T75-43" value="" style="endArrow=none;html=1;rounded=0;exitX=0.5;exitY=0;exitDx=0;exitDy=0;entryX=0.5;entryY=1;entryDx=0;entryDy=0;" parent="1" source="DaqoWSc-mNuOy6L9-T75-27" target="DaqoWSc-mNuOy6L9-T75-44" edge="1">
          <mxGeometry width="50" height="50" relative="1" as="geometry">
            <mxPoint x="440" y="1370" as="sourcePoint" />
            <mxPoint x="630" y="1200" as="targetPoint" />
            <Array as="points" />
          </mxGeometry>
        </mxCell>
        <mxCell id="DaqoWSc-mNuOy6L9-T75-44" value="" style="rhombus;whiteSpace=wrap;html=1;" parent="1" vertex="1">
          <mxGeometry x="654" y="630" width="40" height="50" as="geometry" />
        </mxCell>
        <mxCell id="DaqoWSc-mNuOy6L9-T75-45" value="User" style="swimlane;fontStyle=1;align=center;verticalAlign=top;childLayout=stackLayout;horizontal=1;startSize=26;horizontalStack=0;resizeParent=1;resizeParentMax=0;resizeLast=0;collapsible=1;marginBottom=0;whiteSpace=wrap;html=1;" parent="1" vertex="1">
          <mxGeometry x="584" y="360" width="180" height="270" as="geometry" />
        </mxCell>
        <mxCell id="DaqoWSc-mNuOy6L9-T75-46" value="+ userID: int&lt;br&gt;+ userEmail : String&lt;br&gt;+ password : String&lt;br&gt;+ fullName: String&lt;br&gt;+ pronouns: String&lt;br&gt;+ qualifications: String&lt;br&gt;+ bio: String&lt;br&gt;+ achievements: String&lt;br&gt;&lt;br&gt;" style="text;strokeColor=none;fillColor=none;align=left;verticalAlign=top;spacingLeft=4;spacingRight=4;overflow=hidden;rotatable=0;points=[[0,0.5],[1,0.5]];portConstraint=eastwest;whiteSpace=wrap;html=1;" parent="DaqoWSc-mNuOy6L9-T75-45" vertex="1">
          <mxGeometry y="26" width="180" height="124" as="geometry" />
        </mxCell>
        <mxCell id="DaqoWSc-mNuOy6L9-T75-47" value="" style="line;strokeWidth=1;fillColor=none;align=left;verticalAlign=middle;spacingTop=-1;spacingLeft=3;spacingRight=3;rotatable=0;labelPosition=right;points=[];portConstraint=eastwest;strokeColor=inherit;" parent="DaqoWSc-mNuOy6L9-T75-45" vertex="1">
          <mxGeometry y="150" width="180" height="30" as="geometry" />
        </mxCell>
        <mxCell id="DaqoWSc-mNuOy6L9-T75-48" value="+ emailValidation(): String&lt;br&gt;+ passwordlValidation(): String&lt;br&gt;+ pronounlValidation(): String&lt;br&gt;+ userRegistration: User&lt;br&gt;+ userAuthentication(): User" style="text;strokeColor=none;fillColor=none;align=left;verticalAlign=top;spacingLeft=4;spacingRight=4;overflow=hidden;rotatable=0;points=[[0,0.5],[1,0.5]];portConstraint=eastwest;whiteSpace=wrap;html=1;" parent="DaqoWSc-mNuOy6L9-T75-45" vertex="1">
          <mxGeometry y="180" width="180" height="90" as="geometry" />
        </mxCell>
        <mxCell id="DaqoWSc-mNuOy6L9-T75-49" value="Moderator" style="swimlane;fontStyle=1;align=center;verticalAlign=top;childLayout=stackLayout;horizontal=1;startSize=26;horizontalStack=0;resizeParent=1;resizeParentMax=0;resizeLast=0;collapsible=1;marginBottom=0;whiteSpace=wrap;html=1;" parent="1" vertex="1">
          <mxGeometry x="960" y="400" width="180" height="110" as="geometry" />
        </mxCell>
        <mxCell id="DaqoWSc-mNuOy6L9-T75-50" value="" style="line;strokeWidth=1;fillColor=none;align=left;verticalAlign=middle;spacingTop=-1;spacingLeft=3;spacingRight=3;rotatable=0;labelPosition=right;points=[];portConstraint=eastwest;strokeColor=inherit;" parent="DaqoWSc-mNuOy6L9-T75-49" vertex="1">
          <mxGeometry y="26" width="180" height="30" as="geometry" />
        </mxCell>
        <mxCell id="DaqoWSc-mNuOy6L9-T75-51" value="DeleteReport(): String&lt;br&gt;ResolveReport():String" style="text;strokeColor=none;fillColor=none;align=left;verticalAlign=top;spacingLeft=4;spacingRight=4;overflow=hidden;rotatable=0;points=[[0,0.5],[1,0.5]];portConstraint=eastwest;whiteSpace=wrap;html=1;" parent="DaqoWSc-mNuOy6L9-T75-49" vertex="1">
          <mxGeometry y="56" width="180" height="54" as="geometry" />
        </mxCell>
        <mxCell id="DaqoWSc-mNuOy6L9-T75-52" value="" style="endArrow=block;endFill=0;endSize=34;html=1;rounded=0;exitX=-0.028;exitY=0.13;exitDx=0;exitDy=0;exitPerimeter=0;entryX=0.994;entryY=0.621;entryDx=0;entryDy=0;entryPerimeter=0;" parent="1" source="DaqoWSc-mNuOy6L9-T75-51" target="DaqoWSc-mNuOy6L9-T75-46" edge="1">
          <mxGeometry width="160" relative="1" as="geometry">
            <mxPoint x="970" y="470" as="sourcePoint" />
            <mxPoint x="810" y="470" as="targetPoint" />
          </mxGeometry>
        </mxCell>
        <mxCell id="P2lqv7Zl-PTRJqhCxioe-1" value="Answer" style="swimlane;fontStyle=1;align=center;verticalAlign=top;childLayout=stackLayout;horizontal=1;startSize=26;horizontalStack=0;resizeParent=1;resizeParentMax=0;resizeLast=0;collapsible=1;marginBottom=0;whiteSpace=wrap;html=1;" vertex="1" parent="1">
          <mxGeometry x="360" y="1370" width="160" height="250" as="geometry" />
        </mxCell>
        <mxCell id="P2lqv7Zl-PTRJqhCxioe-2" value="+ answerID: int&lt;br&gt;+ userEmail: String&lt;br&gt;+ votes: int&lt;br&gt;+ answerText: String" style="text;strokeColor=none;fillColor=none;align=left;verticalAlign=top;spacingLeft=4;spacingRight=4;overflow=hidden;rotatable=0;points=[[0,0.5],[1,0.5]];portConstraint=eastwest;whiteSpace=wrap;html=1;" vertex="1" parent="P2lqv7Zl-PTRJqhCxioe-1">
          <mxGeometry y="26" width="160" height="114" as="geometry" />
        </mxCell>
        <mxCell id="P2lqv7Zl-PTRJqhCxioe-3" value="" style="line;strokeWidth=1;fillColor=none;align=left;verticalAlign=middle;spacingTop=-1;spacingLeft=3;spacingRight=3;rotatable=0;labelPosition=right;points=[];portConstraint=eastwest;strokeColor=inherit;" vertex="1" parent="P2lqv7Zl-PTRJqhCxioe-1">
          <mxGeometry y="140" width="160" height="8" as="geometry" />
        </mxCell>
        <mxCell id="P2lqv7Zl-PTRJqhCxioe-4" value="+ AddAnswer(): String&lt;br&gt;+ deleteAnswer(): Boolean" style="text;strokeColor=none;fillColor=none;align=left;verticalAlign=top;spacingLeft=4;spacingRight=4;overflow=hidden;rotatable=0;points=[[0,0.5],[1,0.5]];portConstraint=eastwest;whiteSpace=wrap;html=1;" vertex="1" parent="P2lqv7Zl-PTRJqhCxioe-1">
          <mxGeometry y="148" width="160" height="102" as="geometry" />
        </mxCell>
        <mxCell id="P2lqv7Zl-PTRJqhCxioe-5" value="Comment" style="swimlane;fontStyle=1;align=center;verticalAlign=top;childLayout=stackLayout;horizontal=1;startSize=26;horizontalStack=0;resizeParent=1;resizeParentMax=0;resizeLast=0;collapsible=1;marginBottom=0;whiteSpace=wrap;html=1;" vertex="1" parent="1">
          <mxGeometry x="860" y="1370" width="170" height="250" as="geometry" />
        </mxCell>
        <mxCell id="P2lqv7Zl-PTRJqhCxioe-6" value="+ commentID: int&lt;br style=&quot;border-color: var(--border-color);&quot;&gt;+ userEmail: String&lt;br style=&quot;border-color: var(--border-color);&quot;&gt;+ votes: int&lt;br style=&quot;border-color: var(--border-color);&quot;&gt;+ commentText: String" style="text;strokeColor=none;fillColor=none;align=left;verticalAlign=top;spacingLeft=4;spacingRight=4;overflow=hidden;rotatable=0;points=[[0,0.5],[1,0.5]];portConstraint=eastwest;whiteSpace=wrap;html=1;" vertex="1" parent="P2lqv7Zl-PTRJqhCxioe-5">
          <mxGeometry y="26" width="170" height="134" as="geometry" />
        </mxCell>
        <mxCell id="P2lqv7Zl-PTRJqhCxioe-7" value="" style="line;strokeWidth=1;fillColor=none;align=left;verticalAlign=middle;spacingTop=-1;spacingLeft=3;spacingRight=3;rotatable=0;labelPosition=right;points=[];portConstraint=eastwest;strokeColor=inherit;" vertex="1" parent="P2lqv7Zl-PTRJqhCxioe-5">
          <mxGeometry y="160" width="170" height="8" as="geometry" />
        </mxCell>
        <mxCell id="P2lqv7Zl-PTRJqhCxioe-8" value="+ deleteComment(): Boolean&lt;br&gt;+ editComment(): String" style="text;strokeColor=none;fillColor=none;align=left;verticalAlign=top;spacingLeft=4;spacingRight=4;overflow=hidden;rotatable=0;points=[[0,0.5],[1,0.5]];portConstraint=eastwest;whiteSpace=wrap;html=1;" vertex="1" parent="P2lqv7Zl-PTRJqhCxioe-5">
          <mxGeometry y="168" width="170" height="82" as="geometry" />
        </mxCell>
      </root>
    </mxGraphModel>
  </diagram>
</mxfile>
